<mxfile host="Electron" modified="2024-07-04T09:21:20.427Z" agent="Mozilla/5.0 (Macintosh; Intel Mac OS X 10_15_7) AppleWebKit/537.36 (KHTML, like Gecko) draw.io/24.6.4 Chrome/124.0.6367.207 Electron/30.0.6 Safari/537.36" etag="_TEC21aXUGYyWVeLiVLn" version="24.6.4" type="device">
  <diagram name="第 1 页" id="4W6_5E8bpY0eNorqCPpd">
    <mxGraphModel dx="2591" dy="2520" grid="1" gridSize="10" guides="1" tooltips="1" connect="1" arrows="1" fold="1" page="1" pageScale="1" pageWidth="827" pageHeight="1169" math="0" shadow="0">
      <root>
        <mxCell id="0" />
        <mxCell id="1" parent="0" />
        <mxCell id="liVhshZr2dvZHajNHUbR-96" value="" style="shape=parallelogram;perimeter=parallelogramPerimeter;whiteSpace=wrap;html=1;fixedSize=1;size=219.99999999999955;" vertex="1" parent="1">
          <mxGeometry x="-360" y="90" width="2370" height="770" as="geometry" />
        </mxCell>
        <mxCell id="liVhshZr2dvZHajNHUbR-1" value="" style="shape=mxgraph.cisco.routers.10700;sketch=0;html=1;pointerEvents=1;dashed=0;fillColor=#036897;strokeColor=#ffffff;strokeWidth=2;verticalLabelPosition=bottom;verticalAlign=top;align=center;outlineConnect=0;" vertex="1" parent="1">
          <mxGeometry x="-40" y="498.5" width="47.5" height="30" as="geometry" />
        </mxCell>
        <mxCell id="liVhshZr2dvZHajNHUbR-2" value="" style="shape=mxgraph.cisco.routers.10700;sketch=0;html=1;pointerEvents=1;dashed=0;fillColor=#036897;strokeColor=#ffffff;strokeWidth=2;verticalLabelPosition=bottom;verticalAlign=top;align=center;outlineConnect=0;" vertex="1" parent="1">
          <mxGeometry x="254" y="548.5" width="60" height="40" as="geometry" />
        </mxCell>
        <mxCell id="liVhshZr2dvZHajNHUbR-4" value="" style="shape=mxgraph.cisco.computers_and_peripherals.ibm_mini_as400;sketch=0;html=1;pointerEvents=1;dashed=0;fillColor=#036897;strokeColor=#ffffff;strokeWidth=2;verticalLabelPosition=bottom;verticalAlign=top;align=center;outlineConnect=0;" vertex="1" parent="1">
          <mxGeometry x="-37.75" y="548.5" width="43" height="62" as="geometry" />
        </mxCell>
        <mxCell id="liVhshZr2dvZHajNHUbR-5" value="" style="shape=mxgraph.cisco.computers_and_peripherals.ibm_mini_as400;sketch=0;html=1;pointerEvents=1;dashed=0;fillColor=#036897;strokeColor=#ffffff;strokeWidth=2;verticalLabelPosition=bottom;verticalAlign=top;align=center;outlineConnect=0;" vertex="1" parent="1">
          <mxGeometry x="12.25" y="548.5" width="43" height="62" as="geometry" />
        </mxCell>
        <mxCell id="liVhshZr2dvZHajNHUbR-6" value="" style="shape=mxgraph.cisco.computers_and_peripherals.ibm_mini_as400;sketch=0;html=1;pointerEvents=1;dashed=0;fillColor=#036897;strokeColor=#ffffff;strokeWidth=2;verticalLabelPosition=bottom;verticalAlign=top;align=center;outlineConnect=0;" vertex="1" parent="1">
          <mxGeometry x="62.25" y="548.5" width="43" height="62" as="geometry" />
        </mxCell>
        <mxCell id="liVhshZr2dvZHajNHUbR-7" value="" style="shape=mxgraph.cisco.computers_and_peripherals.ibm_mini_as400;sketch=0;html=1;pointerEvents=1;dashed=0;fillColor=#036897;strokeColor=#ffffff;strokeWidth=2;verticalLabelPosition=bottom;verticalAlign=top;align=center;outlineConnect=0;" vertex="1" parent="1">
          <mxGeometry x="112.25" y="548.5" width="43" height="62" as="geometry" />
        </mxCell>
        <mxCell id="liVhshZr2dvZHajNHUbR-8" value="" style="shape=mxgraph.cisco.computers_and_peripherals.ibm_mini_as400;sketch=0;html=1;pointerEvents=1;dashed=0;fillColor=#036897;strokeColor=#ffffff;strokeWidth=2;verticalLabelPosition=bottom;verticalAlign=top;align=center;outlineConnect=0;" vertex="1" parent="1">
          <mxGeometry x="162.25" y="548.5" width="43" height="62" as="geometry" />
        </mxCell>
        <mxCell id="liVhshZr2dvZHajNHUbR-9" value="" style="shape=mxgraph.cisco.routers.10700;sketch=0;html=1;pointerEvents=1;dashed=0;fillColor=#036897;strokeColor=#ffffff;strokeWidth=2;verticalLabelPosition=bottom;verticalAlign=top;align=center;outlineConnect=0;" vertex="1" parent="1">
          <mxGeometry x="10" y="498.5" width="47.5" height="30" as="geometry" />
        </mxCell>
        <mxCell id="liVhshZr2dvZHajNHUbR-10" value="" style="shape=mxgraph.cisco.routers.10700;sketch=0;html=1;pointerEvents=1;dashed=0;fillColor=#036897;strokeColor=#ffffff;strokeWidth=2;verticalLabelPosition=bottom;verticalAlign=top;align=center;outlineConnect=0;" vertex="1" parent="1">
          <mxGeometry x="60" y="498.5" width="47.5" height="30" as="geometry" />
        </mxCell>
        <mxCell id="liVhshZr2dvZHajNHUbR-11" value="" style="shape=mxgraph.cisco.routers.10700;sketch=0;html=1;pointerEvents=1;dashed=0;fillColor=#036897;strokeColor=#ffffff;strokeWidth=2;verticalLabelPosition=bottom;verticalAlign=top;align=center;outlineConnect=0;" vertex="1" parent="1">
          <mxGeometry x="110" y="498.5" width="47.5" height="30" as="geometry" />
        </mxCell>
        <mxCell id="liVhshZr2dvZHajNHUbR-12" value="" style="shape=mxgraph.cisco.routers.10700;sketch=0;html=1;pointerEvents=1;dashed=0;fillColor=#036897;strokeColor=#ffffff;strokeWidth=2;verticalLabelPosition=bottom;verticalAlign=top;align=center;outlineConnect=0;" vertex="1" parent="1">
          <mxGeometry x="162.25" y="498.5" width="47.5" height="30" as="geometry" />
        </mxCell>
        <mxCell id="liVhshZr2dvZHajNHUbR-13" value="" style="shape=mxgraph.cisco.routers.10700;sketch=0;html=1;pointerEvents=1;dashed=0;fillColor=#036897;strokeColor=#ffffff;strokeWidth=2;verticalLabelPosition=bottom;verticalAlign=top;align=center;outlineConnect=0;" vertex="1" parent="1">
          <mxGeometry x="-37.370000000000005" y="338.5" width="47.5" height="30" as="geometry" />
        </mxCell>
        <mxCell id="liVhshZr2dvZHajNHUbR-14" value="" style="shape=mxgraph.cisco.routers.10700;sketch=0;html=1;pointerEvents=1;dashed=0;fillColor=#036897;strokeColor=#ffffff;strokeWidth=2;verticalLabelPosition=bottom;verticalAlign=top;align=center;outlineConnect=0;" vertex="1" parent="1">
          <mxGeometry x="256.63" y="388.5" width="60" height="40" as="geometry" />
        </mxCell>
        <mxCell id="liVhshZr2dvZHajNHUbR-15" value="" style="shape=mxgraph.cisco.computers_and_peripherals.ibm_mini_as400;sketch=0;html=1;pointerEvents=1;dashed=0;fillColor=#036897;strokeColor=#ffffff;strokeWidth=2;verticalLabelPosition=bottom;verticalAlign=top;align=center;outlineConnect=0;" vertex="1" parent="1">
          <mxGeometry x="-35.120000000000005" y="388.5" width="43" height="62" as="geometry" />
        </mxCell>
        <mxCell id="liVhshZr2dvZHajNHUbR-16" value="" style="shape=mxgraph.cisco.computers_and_peripherals.ibm_mini_as400;sketch=0;html=1;pointerEvents=1;dashed=0;fillColor=#036897;strokeColor=#ffffff;strokeWidth=2;verticalLabelPosition=bottom;verticalAlign=top;align=center;outlineConnect=0;" vertex="1" parent="1">
          <mxGeometry x="14.879999999999995" y="388.5" width="43" height="62" as="geometry" />
        </mxCell>
        <mxCell id="liVhshZr2dvZHajNHUbR-17" value="" style="shape=mxgraph.cisco.computers_and_peripherals.ibm_mini_as400;sketch=0;html=1;pointerEvents=1;dashed=0;fillColor=#036897;strokeColor=#ffffff;strokeWidth=2;verticalLabelPosition=bottom;verticalAlign=top;align=center;outlineConnect=0;" vertex="1" parent="1">
          <mxGeometry x="64.88" y="388.5" width="43" height="62" as="geometry" />
        </mxCell>
        <mxCell id="liVhshZr2dvZHajNHUbR-18" value="" style="shape=mxgraph.cisco.computers_and_peripherals.ibm_mini_as400;sketch=0;html=1;pointerEvents=1;dashed=0;fillColor=#036897;strokeColor=#ffffff;strokeWidth=2;verticalLabelPosition=bottom;verticalAlign=top;align=center;outlineConnect=0;" vertex="1" parent="1">
          <mxGeometry x="114.88" y="388.5" width="43" height="62" as="geometry" />
        </mxCell>
        <mxCell id="liVhshZr2dvZHajNHUbR-19" value="" style="shape=mxgraph.cisco.computers_and_peripherals.ibm_mini_as400;sketch=0;html=1;pointerEvents=1;dashed=0;fillColor=#036897;strokeColor=#ffffff;strokeWidth=2;verticalLabelPosition=bottom;verticalAlign=top;align=center;outlineConnect=0;" vertex="1" parent="1">
          <mxGeometry x="164.88" y="388.5" width="43" height="62" as="geometry" />
        </mxCell>
        <mxCell id="liVhshZr2dvZHajNHUbR-20" value="" style="shape=mxgraph.cisco.routers.10700;sketch=0;html=1;pointerEvents=1;dashed=0;fillColor=#036897;strokeColor=#ffffff;strokeWidth=2;verticalLabelPosition=bottom;verticalAlign=top;align=center;outlineConnect=0;" vertex="1" parent="1">
          <mxGeometry x="12.629999999999995" y="338.5" width="47.5" height="30" as="geometry" />
        </mxCell>
        <mxCell id="liVhshZr2dvZHajNHUbR-21" value="" style="shape=mxgraph.cisco.routers.10700;sketch=0;html=1;pointerEvents=1;dashed=0;fillColor=#036897;strokeColor=#ffffff;strokeWidth=2;verticalLabelPosition=bottom;verticalAlign=top;align=center;outlineConnect=0;" vertex="1" parent="1">
          <mxGeometry x="62.629999999999995" y="338.5" width="47.5" height="30" as="geometry" />
        </mxCell>
        <mxCell id="liVhshZr2dvZHajNHUbR-22" value="" style="shape=mxgraph.cisco.routers.10700;sketch=0;html=1;pointerEvents=1;dashed=0;fillColor=#036897;strokeColor=#ffffff;strokeWidth=2;verticalLabelPosition=bottom;verticalAlign=top;align=center;outlineConnect=0;" vertex="1" parent="1">
          <mxGeometry x="112.63" y="338.5" width="47.5" height="30" as="geometry" />
        </mxCell>
        <mxCell id="liVhshZr2dvZHajNHUbR-23" value="" style="shape=mxgraph.cisco.routers.10700;sketch=0;html=1;pointerEvents=1;dashed=0;fillColor=#036897;strokeColor=#ffffff;strokeWidth=2;verticalLabelPosition=bottom;verticalAlign=top;align=center;outlineConnect=0;" vertex="1" parent="1">
          <mxGeometry x="164.88" y="338.5" width="47.5" height="30" as="geometry" />
        </mxCell>
        <mxCell id="liVhshZr2dvZHajNHUbR-24" value="" style="shape=mxgraph.cisco.routers.10700;sketch=0;html=1;pointerEvents=1;dashed=0;fillColor=#036897;strokeColor=#ffffff;strokeWidth=2;verticalLabelPosition=bottom;verticalAlign=top;align=center;outlineConnect=0;" vertex="1" parent="1">
          <mxGeometry x="-37.370000000000005" y="179.5" width="47.5" height="30" as="geometry" />
        </mxCell>
        <mxCell id="liVhshZr2dvZHajNHUbR-25" value="" style="shape=mxgraph.cisco.routers.10700;sketch=0;html=1;pointerEvents=1;dashed=0;fillColor=#036897;strokeColor=#ffffff;strokeWidth=2;verticalLabelPosition=bottom;verticalAlign=top;align=center;outlineConnect=0;" vertex="1" parent="1">
          <mxGeometry x="256.63" y="229.5" width="60" height="40" as="geometry" />
        </mxCell>
        <mxCell id="liVhshZr2dvZHajNHUbR-26" value="" style="shape=mxgraph.cisco.computers_and_peripherals.ibm_mini_as400;sketch=0;html=1;pointerEvents=1;dashed=0;fillColor=#036897;strokeColor=#ffffff;strokeWidth=2;verticalLabelPosition=bottom;verticalAlign=top;align=center;outlineConnect=0;" vertex="1" parent="1">
          <mxGeometry x="-35.120000000000005" y="229.5" width="43" height="62" as="geometry" />
        </mxCell>
        <mxCell id="liVhshZr2dvZHajNHUbR-27" value="" style="shape=mxgraph.cisco.computers_and_peripherals.ibm_mini_as400;sketch=0;html=1;pointerEvents=1;dashed=0;fillColor=#036897;strokeColor=#ffffff;strokeWidth=2;verticalLabelPosition=bottom;verticalAlign=top;align=center;outlineConnect=0;" vertex="1" parent="1">
          <mxGeometry x="14.879999999999995" y="229.5" width="43" height="62" as="geometry" />
        </mxCell>
        <mxCell id="liVhshZr2dvZHajNHUbR-28" value="" style="shape=mxgraph.cisco.computers_and_peripherals.ibm_mini_as400;sketch=0;html=1;pointerEvents=1;dashed=0;fillColor=#036897;strokeColor=#ffffff;strokeWidth=2;verticalLabelPosition=bottom;verticalAlign=top;align=center;outlineConnect=0;" vertex="1" parent="1">
          <mxGeometry x="64.88" y="229.5" width="43" height="62" as="geometry" />
        </mxCell>
        <mxCell id="liVhshZr2dvZHajNHUbR-29" value="" style="shape=mxgraph.cisco.computers_and_peripherals.ibm_mini_as400;sketch=0;html=1;pointerEvents=1;dashed=0;fillColor=#036897;strokeColor=#ffffff;strokeWidth=2;verticalLabelPosition=bottom;verticalAlign=top;align=center;outlineConnect=0;" vertex="1" parent="1">
          <mxGeometry x="114.88" y="229.5" width="43" height="62" as="geometry" />
        </mxCell>
        <mxCell id="liVhshZr2dvZHajNHUbR-30" value="" style="shape=mxgraph.cisco.computers_and_peripherals.ibm_mini_as400;sketch=0;html=1;pointerEvents=1;dashed=0;fillColor=#036897;strokeColor=#ffffff;strokeWidth=2;verticalLabelPosition=bottom;verticalAlign=top;align=center;outlineConnect=0;" vertex="1" parent="1">
          <mxGeometry x="164.88" y="229.5" width="43" height="62" as="geometry" />
        </mxCell>
        <mxCell id="liVhshZr2dvZHajNHUbR-31" value="" style="shape=mxgraph.cisco.routers.10700;sketch=0;html=1;pointerEvents=1;dashed=0;fillColor=#036897;strokeColor=#ffffff;strokeWidth=2;verticalLabelPosition=bottom;verticalAlign=top;align=center;outlineConnect=0;" vertex="1" parent="1">
          <mxGeometry x="12.629999999999995" y="179.5" width="47.5" height="30" as="geometry" />
        </mxCell>
        <mxCell id="liVhshZr2dvZHajNHUbR-32" value="" style="shape=mxgraph.cisco.routers.10700;sketch=0;html=1;pointerEvents=1;dashed=0;fillColor=#036897;strokeColor=#ffffff;strokeWidth=2;verticalLabelPosition=bottom;verticalAlign=top;align=center;outlineConnect=0;" vertex="1" parent="1">
          <mxGeometry x="62.629999999999995" y="179.5" width="47.5" height="30" as="geometry" />
        </mxCell>
        <mxCell id="liVhshZr2dvZHajNHUbR-33" value="" style="shape=mxgraph.cisco.routers.10700;sketch=0;html=1;pointerEvents=1;dashed=0;fillColor=#036897;strokeColor=#ffffff;strokeWidth=2;verticalLabelPosition=bottom;verticalAlign=top;align=center;outlineConnect=0;" vertex="1" parent="1">
          <mxGeometry x="112.63" y="179.5" width="47.5" height="30" as="geometry" />
        </mxCell>
        <mxCell id="liVhshZr2dvZHajNHUbR-34" value="" style="shape=mxgraph.cisco.routers.10700;sketch=0;html=1;pointerEvents=1;dashed=0;fillColor=#036897;strokeColor=#ffffff;strokeWidth=2;verticalLabelPosition=bottom;verticalAlign=top;align=center;outlineConnect=0;" vertex="1" parent="1">
          <mxGeometry x="164.88" y="179.5" width="47.5" height="30" as="geometry" />
        </mxCell>
        <mxCell id="liVhshZr2dvZHajNHUbR-35" value="" style="shape=mxgraph.cisco.routers.10700;sketch=0;html=1;pointerEvents=1;dashed=0;fillColor=#036897;strokeColor=#ffffff;strokeWidth=2;verticalLabelPosition=bottom;verticalAlign=top;align=center;outlineConnect=0;" vertex="1" parent="1">
          <mxGeometry x="390" y="388.5" width="60" height="40" as="geometry" />
        </mxCell>
        <mxCell id="liVhshZr2dvZHajNHUbR-36" value="" style="shape=mxgraph.cisco.routers.10700;sketch=0;html=1;pointerEvents=1;dashed=0;fillColor=#036897;strokeColor=#ffffff;strokeWidth=2;verticalLabelPosition=bottom;verticalAlign=top;align=center;outlineConnect=0;" vertex="1" parent="1">
          <mxGeometry x="530" y="468.5" width="60" height="40" as="geometry" />
        </mxCell>
        <mxCell id="liVhshZr2dvZHajNHUbR-37" value="" style="shape=mxgraph.cisco.routers.10700;sketch=0;html=1;pointerEvents=1;dashed=0;fillColor=#036897;strokeColor=#ffffff;strokeWidth=2;verticalLabelPosition=bottom;verticalAlign=top;align=center;outlineConnect=0;" vertex="1" parent="1">
          <mxGeometry x="-40" y="668.5" width="47.5" height="30" as="geometry" />
        </mxCell>
        <mxCell id="liVhshZr2dvZHajNHUbR-38" value="" style="shape=mxgraph.cisco.routers.10700;sketch=0;html=1;pointerEvents=1;dashed=0;fillColor=#036897;strokeColor=#ffffff;strokeWidth=2;verticalLabelPosition=bottom;verticalAlign=top;align=center;outlineConnect=0;" vertex="1" parent="1">
          <mxGeometry x="254" y="718.5" width="60" height="40" as="geometry" />
        </mxCell>
        <mxCell id="liVhshZr2dvZHajNHUbR-39" value="" style="shape=mxgraph.cisco.computers_and_peripherals.ibm_mini_as400;sketch=0;html=1;pointerEvents=1;dashed=0;fillColor=#036897;strokeColor=#ffffff;strokeWidth=2;verticalLabelPosition=bottom;verticalAlign=top;align=center;outlineConnect=0;" vertex="1" parent="1">
          <mxGeometry x="-37.75" y="718.5" width="43" height="62" as="geometry" />
        </mxCell>
        <mxCell id="liVhshZr2dvZHajNHUbR-40" value="" style="shape=mxgraph.cisco.computers_and_peripherals.ibm_mini_as400;sketch=0;html=1;pointerEvents=1;dashed=0;fillColor=#036897;strokeColor=#ffffff;strokeWidth=2;verticalLabelPosition=bottom;verticalAlign=top;align=center;outlineConnect=0;" vertex="1" parent="1">
          <mxGeometry x="12.25" y="718.5" width="43" height="62" as="geometry" />
        </mxCell>
        <mxCell id="liVhshZr2dvZHajNHUbR-41" value="" style="shape=mxgraph.cisco.computers_and_peripherals.ibm_mini_as400;sketch=0;html=1;pointerEvents=1;dashed=0;fillColor=#036897;strokeColor=#ffffff;strokeWidth=2;verticalLabelPosition=bottom;verticalAlign=top;align=center;outlineConnect=0;" vertex="1" parent="1">
          <mxGeometry x="62.25" y="718.5" width="43" height="62" as="geometry" />
        </mxCell>
        <mxCell id="liVhshZr2dvZHajNHUbR-42" value="" style="shape=mxgraph.cisco.computers_and_peripherals.ibm_mini_as400;sketch=0;html=1;pointerEvents=1;dashed=0;fillColor=#036897;strokeColor=#ffffff;strokeWidth=2;verticalLabelPosition=bottom;verticalAlign=top;align=center;outlineConnect=0;" vertex="1" parent="1">
          <mxGeometry x="112.25" y="718.5" width="43" height="62" as="geometry" />
        </mxCell>
        <mxCell id="liVhshZr2dvZHajNHUbR-43" value="" style="shape=mxgraph.cisco.computers_and_peripherals.ibm_mini_as400;sketch=0;html=1;pointerEvents=1;dashed=0;fillColor=#036897;strokeColor=#ffffff;strokeWidth=2;verticalLabelPosition=bottom;verticalAlign=top;align=center;outlineConnect=0;" vertex="1" parent="1">
          <mxGeometry x="162.25" y="718.5" width="43" height="62" as="geometry" />
        </mxCell>
        <mxCell id="liVhshZr2dvZHajNHUbR-44" value="" style="shape=mxgraph.cisco.routers.10700;sketch=0;html=1;pointerEvents=1;dashed=0;fillColor=#036897;strokeColor=#ffffff;strokeWidth=2;verticalLabelPosition=bottom;verticalAlign=top;align=center;outlineConnect=0;" vertex="1" parent="1">
          <mxGeometry x="10" y="668.5" width="47.5" height="30" as="geometry" />
        </mxCell>
        <mxCell id="liVhshZr2dvZHajNHUbR-45" value="" style="shape=mxgraph.cisco.routers.10700;sketch=0;html=1;pointerEvents=1;dashed=0;fillColor=#036897;strokeColor=#ffffff;strokeWidth=2;verticalLabelPosition=bottom;verticalAlign=top;align=center;outlineConnect=0;" vertex="1" parent="1">
          <mxGeometry x="60" y="668.5" width="47.5" height="30" as="geometry" />
        </mxCell>
        <mxCell id="liVhshZr2dvZHajNHUbR-46" value="" style="shape=mxgraph.cisco.routers.10700;sketch=0;html=1;pointerEvents=1;dashed=0;fillColor=#036897;strokeColor=#ffffff;strokeWidth=2;verticalLabelPosition=bottom;verticalAlign=top;align=center;outlineConnect=0;" vertex="1" parent="1">
          <mxGeometry x="110" y="668.5" width="47.5" height="30" as="geometry" />
        </mxCell>
        <mxCell id="liVhshZr2dvZHajNHUbR-47" value="" style="shape=mxgraph.cisco.routers.10700;sketch=0;html=1;pointerEvents=1;dashed=0;fillColor=#036897;strokeColor=#ffffff;strokeWidth=2;verticalLabelPosition=bottom;verticalAlign=top;align=center;outlineConnect=0;" vertex="1" parent="1">
          <mxGeometry x="162.25" y="668.5" width="47.5" height="30" as="geometry" />
        </mxCell>
        <mxCell id="liVhshZr2dvZHajNHUbR-48" value="" style="shape=mxgraph.cisco.routers.10700;sketch=0;html=1;pointerEvents=1;dashed=0;fillColor=#036897;strokeColor=#ffffff;strokeWidth=2;verticalLabelPosition=bottom;verticalAlign=top;align=center;outlineConnect=0;" vertex="1" parent="1">
          <mxGeometry x="390" y="553.5" width="60" height="40" as="geometry" />
        </mxCell>
        <mxCell id="liVhshZr2dvZHajNHUbR-49" value="" style="shape=mxgraph.cisco.routers.10700;sketch=0;html=1;pointerEvents=1;dashed=0;fillColor=#036897;strokeColor=#ffffff;strokeWidth=2;verticalLabelPosition=bottom;verticalAlign=top;align=center;outlineConnect=0;" vertex="1" parent="1">
          <mxGeometry x="1200" y="380" width="60" height="40" as="geometry" />
        </mxCell>
        <mxCell id="liVhshZr2dvZHajNHUbR-50" value="" style="shape=mxgraph.cisco.routers.10700;sketch=0;html=1;pointerEvents=1;dashed=0;fillColor=#036897;strokeColor=#ffffff;strokeWidth=2;verticalLabelPosition=bottom;verticalAlign=top;align=center;outlineConnect=0;" vertex="1" parent="1">
          <mxGeometry x="1200" y="545" width="60" height="40" as="geometry" />
        </mxCell>
        <mxCell id="liVhshZr2dvZHajNHUbR-51" value="" style="shape=mxgraph.cisco.routers.10700;sketch=0;html=1;pointerEvents=1;dashed=0;fillColor=#036897;strokeColor=#ffffff;strokeWidth=2;verticalLabelPosition=bottom;verticalAlign=top;align=center;outlineConnect=0;" vertex="1" parent="1">
          <mxGeometry x="1330" y="540" width="60" height="40" as="geometry" />
        </mxCell>
        <mxCell id="liVhshZr2dvZHajNHUbR-52" value="" style="shape=mxgraph.cisco.routers.10700;sketch=0;html=1;pointerEvents=1;dashed=0;fillColor=#036897;strokeColor=#ffffff;strokeWidth=2;verticalLabelPosition=bottom;verticalAlign=top;align=center;outlineConnect=0;" vertex="1" parent="1">
          <mxGeometry x="1332.63" y="380" width="60" height="40" as="geometry" />
        </mxCell>
        <mxCell id="liVhshZr2dvZHajNHUbR-53" value="" style="shape=mxgraph.cisco.routers.10700;sketch=0;html=1;pointerEvents=1;dashed=0;fillColor=#036897;strokeColor=#ffffff;strokeWidth=2;verticalLabelPosition=bottom;verticalAlign=top;align=center;outlineConnect=0;" vertex="1" parent="1">
          <mxGeometry x="1332.63" y="221" width="60" height="40" as="geometry" />
        </mxCell>
        <mxCell id="liVhshZr2dvZHajNHUbR-54" value="" style="shape=mxgraph.cisco.routers.10700;sketch=0;html=1;pointerEvents=1;dashed=0;fillColor=#036897;strokeColor=#ffffff;strokeWidth=2;verticalLabelPosition=bottom;verticalAlign=top;align=center;outlineConnect=0;" vertex="1" parent="1">
          <mxGeometry x="1330" y="710" width="60" height="40" as="geometry" />
        </mxCell>
        <mxCell id="liVhshZr2dvZHajNHUbR-55" value="" style="shape=mxgraph.cisco.routers.10700;sketch=0;html=1;pointerEvents=1;dashed=0;fillColor=#036897;strokeColor=#ffffff;strokeWidth=2;verticalLabelPosition=bottom;verticalAlign=top;align=center;outlineConnect=0;" vertex="1" parent="1">
          <mxGeometry x="1440" y="523.5" width="47.5" height="30" as="geometry" />
        </mxCell>
        <mxCell id="liVhshZr2dvZHajNHUbR-56" value="" style="shape=mxgraph.cisco.computers_and_peripherals.ibm_mini_as400;sketch=0;html=1;pointerEvents=1;dashed=0;fillColor=#036897;strokeColor=#ffffff;strokeWidth=2;verticalLabelPosition=bottom;verticalAlign=top;align=center;outlineConnect=0;" vertex="1" parent="1">
          <mxGeometry x="1442.25" y="573.5" width="43" height="62" as="geometry" />
        </mxCell>
        <mxCell id="liVhshZr2dvZHajNHUbR-57" value="" style="shape=mxgraph.cisco.computers_and_peripherals.ibm_mini_as400;sketch=0;html=1;pointerEvents=1;dashed=0;fillColor=#036897;strokeColor=#ffffff;strokeWidth=2;verticalLabelPosition=bottom;verticalAlign=top;align=center;outlineConnect=0;" vertex="1" parent="1">
          <mxGeometry x="1492.25" y="573.5" width="43" height="62" as="geometry" />
        </mxCell>
        <mxCell id="liVhshZr2dvZHajNHUbR-58" value="" style="shape=mxgraph.cisco.computers_and_peripherals.ibm_mini_as400;sketch=0;html=1;pointerEvents=1;dashed=0;fillColor=#036897;strokeColor=#ffffff;strokeWidth=2;verticalLabelPosition=bottom;verticalAlign=top;align=center;outlineConnect=0;" vertex="1" parent="1">
          <mxGeometry x="1542.25" y="573.5" width="43" height="62" as="geometry" />
        </mxCell>
        <mxCell id="liVhshZr2dvZHajNHUbR-59" value="" style="shape=mxgraph.cisco.computers_and_peripherals.ibm_mini_as400;sketch=0;html=1;pointerEvents=1;dashed=0;fillColor=#036897;strokeColor=#ffffff;strokeWidth=2;verticalLabelPosition=bottom;verticalAlign=top;align=center;outlineConnect=0;" vertex="1" parent="1">
          <mxGeometry x="1592.25" y="573.5" width="43" height="62" as="geometry" />
        </mxCell>
        <mxCell id="liVhshZr2dvZHajNHUbR-60" value="" style="shape=mxgraph.cisco.computers_and_peripherals.ibm_mini_as400;sketch=0;html=1;pointerEvents=1;dashed=0;fillColor=#036897;strokeColor=#ffffff;strokeWidth=2;verticalLabelPosition=bottom;verticalAlign=top;align=center;outlineConnect=0;" vertex="1" parent="1">
          <mxGeometry x="1642.25" y="573.5" width="43" height="62" as="geometry" />
        </mxCell>
        <mxCell id="liVhshZr2dvZHajNHUbR-61" value="" style="shape=mxgraph.cisco.routers.10700;sketch=0;html=1;pointerEvents=1;dashed=0;fillColor=#036897;strokeColor=#ffffff;strokeWidth=2;verticalLabelPosition=bottom;verticalAlign=top;align=center;outlineConnect=0;" vertex="1" parent="1">
          <mxGeometry x="1490" y="523.5" width="47.5" height="30" as="geometry" />
        </mxCell>
        <mxCell id="liVhshZr2dvZHajNHUbR-62" value="" style="shape=mxgraph.cisco.routers.10700;sketch=0;html=1;pointerEvents=1;dashed=0;fillColor=#036897;strokeColor=#ffffff;strokeWidth=2;verticalLabelPosition=bottom;verticalAlign=top;align=center;outlineConnect=0;" vertex="1" parent="1">
          <mxGeometry x="1540" y="523.5" width="47.5" height="30" as="geometry" />
        </mxCell>
        <mxCell id="liVhshZr2dvZHajNHUbR-63" value="" style="shape=mxgraph.cisco.routers.10700;sketch=0;html=1;pointerEvents=1;dashed=0;fillColor=#036897;strokeColor=#ffffff;strokeWidth=2;verticalLabelPosition=bottom;verticalAlign=top;align=center;outlineConnect=0;" vertex="1" parent="1">
          <mxGeometry x="1590" y="523.5" width="47.5" height="30" as="geometry" />
        </mxCell>
        <mxCell id="liVhshZr2dvZHajNHUbR-64" value="" style="shape=mxgraph.cisco.routers.10700;sketch=0;html=1;pointerEvents=1;dashed=0;fillColor=#036897;strokeColor=#ffffff;strokeWidth=2;verticalLabelPosition=bottom;verticalAlign=top;align=center;outlineConnect=0;" vertex="1" parent="1">
          <mxGeometry x="1642.25" y="523.5" width="47.5" height="30" as="geometry" />
        </mxCell>
        <mxCell id="liVhshZr2dvZHajNHUbR-65" value="" style="shape=mxgraph.cisco.routers.10700;sketch=0;html=1;pointerEvents=1;dashed=0;fillColor=#036897;strokeColor=#ffffff;strokeWidth=2;verticalLabelPosition=bottom;verticalAlign=top;align=center;outlineConnect=0;" vertex="1" parent="1">
          <mxGeometry x="1442.63" y="363.5" width="47.5" height="30" as="geometry" />
        </mxCell>
        <mxCell id="liVhshZr2dvZHajNHUbR-66" value="" style="shape=mxgraph.cisco.computers_and_peripherals.ibm_mini_as400;sketch=0;html=1;pointerEvents=1;dashed=0;fillColor=#036897;strokeColor=#ffffff;strokeWidth=2;verticalLabelPosition=bottom;verticalAlign=top;align=center;outlineConnect=0;" vertex="1" parent="1">
          <mxGeometry x="1444.88" y="413.5" width="43" height="62" as="geometry" />
        </mxCell>
        <mxCell id="liVhshZr2dvZHajNHUbR-67" value="" style="shape=mxgraph.cisco.computers_and_peripherals.ibm_mini_as400;sketch=0;html=1;pointerEvents=1;dashed=0;fillColor=#036897;strokeColor=#ffffff;strokeWidth=2;verticalLabelPosition=bottom;verticalAlign=top;align=center;outlineConnect=0;" vertex="1" parent="1">
          <mxGeometry x="1494.88" y="413.5" width="43" height="62" as="geometry" />
        </mxCell>
        <mxCell id="liVhshZr2dvZHajNHUbR-68" value="" style="shape=mxgraph.cisco.computers_and_peripherals.ibm_mini_as400;sketch=0;html=1;pointerEvents=1;dashed=0;fillColor=#036897;strokeColor=#ffffff;strokeWidth=2;verticalLabelPosition=bottom;verticalAlign=top;align=center;outlineConnect=0;" vertex="1" parent="1">
          <mxGeometry x="1544.88" y="413.5" width="43" height="62" as="geometry" />
        </mxCell>
        <mxCell id="liVhshZr2dvZHajNHUbR-69" value="" style="shape=mxgraph.cisco.computers_and_peripherals.ibm_mini_as400;sketch=0;html=1;pointerEvents=1;dashed=0;fillColor=#036897;strokeColor=#ffffff;strokeWidth=2;verticalLabelPosition=bottom;verticalAlign=top;align=center;outlineConnect=0;" vertex="1" parent="1">
          <mxGeometry x="1594.88" y="413.5" width="43" height="62" as="geometry" />
        </mxCell>
        <mxCell id="liVhshZr2dvZHajNHUbR-70" value="" style="shape=mxgraph.cisco.computers_and_peripherals.ibm_mini_as400;sketch=0;html=1;pointerEvents=1;dashed=0;fillColor=#036897;strokeColor=#ffffff;strokeWidth=2;verticalLabelPosition=bottom;verticalAlign=top;align=center;outlineConnect=0;" vertex="1" parent="1">
          <mxGeometry x="1644.88" y="413.5" width="43" height="62" as="geometry" />
        </mxCell>
        <mxCell id="liVhshZr2dvZHajNHUbR-71" value="" style="shape=mxgraph.cisco.routers.10700;sketch=0;html=1;pointerEvents=1;dashed=0;fillColor=#036897;strokeColor=#ffffff;strokeWidth=2;verticalLabelPosition=bottom;verticalAlign=top;align=center;outlineConnect=0;" vertex="1" parent="1">
          <mxGeometry x="1492.63" y="363.5" width="47.5" height="30" as="geometry" />
        </mxCell>
        <mxCell id="liVhshZr2dvZHajNHUbR-72" value="" style="shape=mxgraph.cisco.routers.10700;sketch=0;html=1;pointerEvents=1;dashed=0;fillColor=#036897;strokeColor=#ffffff;strokeWidth=2;verticalLabelPosition=bottom;verticalAlign=top;align=center;outlineConnect=0;" vertex="1" parent="1">
          <mxGeometry x="1542.63" y="363.5" width="47.5" height="30" as="geometry" />
        </mxCell>
        <mxCell id="liVhshZr2dvZHajNHUbR-73" value="" style="shape=mxgraph.cisco.routers.10700;sketch=0;html=1;pointerEvents=1;dashed=0;fillColor=#036897;strokeColor=#ffffff;strokeWidth=2;verticalLabelPosition=bottom;verticalAlign=top;align=center;outlineConnect=0;" vertex="1" parent="1">
          <mxGeometry x="1592.63" y="363.5" width="47.5" height="30" as="geometry" />
        </mxCell>
        <mxCell id="liVhshZr2dvZHajNHUbR-74" value="" style="shape=mxgraph.cisco.routers.10700;sketch=0;html=1;pointerEvents=1;dashed=0;fillColor=#036897;strokeColor=#ffffff;strokeWidth=2;verticalLabelPosition=bottom;verticalAlign=top;align=center;outlineConnect=0;" vertex="1" parent="1">
          <mxGeometry x="1644.88" y="363.5" width="47.5" height="30" as="geometry" />
        </mxCell>
        <mxCell id="liVhshZr2dvZHajNHUbR-75" value="" style="shape=mxgraph.cisco.routers.10700;sketch=0;html=1;pointerEvents=1;dashed=0;fillColor=#036897;strokeColor=#ffffff;strokeWidth=2;verticalLabelPosition=bottom;verticalAlign=top;align=center;outlineConnect=0;" vertex="1" parent="1">
          <mxGeometry x="1442.63" y="204.5" width="47.5" height="30" as="geometry" />
        </mxCell>
        <mxCell id="liVhshZr2dvZHajNHUbR-76" value="" style="shape=mxgraph.cisco.computers_and_peripherals.ibm_mini_as400;sketch=0;html=1;pointerEvents=1;dashed=0;fillColor=#036897;strokeColor=#ffffff;strokeWidth=2;verticalLabelPosition=bottom;verticalAlign=top;align=center;outlineConnect=0;" vertex="1" parent="1">
          <mxGeometry x="1444.88" y="254.5" width="43" height="62" as="geometry" />
        </mxCell>
        <mxCell id="liVhshZr2dvZHajNHUbR-77" value="" style="shape=mxgraph.cisco.computers_and_peripherals.ibm_mini_as400;sketch=0;html=1;pointerEvents=1;dashed=0;fillColor=#036897;strokeColor=#ffffff;strokeWidth=2;verticalLabelPosition=bottom;verticalAlign=top;align=center;outlineConnect=0;" vertex="1" parent="1">
          <mxGeometry x="1494.88" y="254.5" width="43" height="62" as="geometry" />
        </mxCell>
        <mxCell id="liVhshZr2dvZHajNHUbR-78" value="" style="shape=mxgraph.cisco.computers_and_peripherals.ibm_mini_as400;sketch=0;html=1;pointerEvents=1;dashed=0;fillColor=#036897;strokeColor=#ffffff;strokeWidth=2;verticalLabelPosition=bottom;verticalAlign=top;align=center;outlineConnect=0;" vertex="1" parent="1">
          <mxGeometry x="1544.88" y="254.5" width="43" height="62" as="geometry" />
        </mxCell>
        <mxCell id="liVhshZr2dvZHajNHUbR-79" value="" style="shape=mxgraph.cisco.computers_and_peripherals.ibm_mini_as400;sketch=0;html=1;pointerEvents=1;dashed=0;fillColor=#036897;strokeColor=#ffffff;strokeWidth=2;verticalLabelPosition=bottom;verticalAlign=top;align=center;outlineConnect=0;" vertex="1" parent="1">
          <mxGeometry x="1594.88" y="254.5" width="43" height="62" as="geometry" />
        </mxCell>
        <mxCell id="liVhshZr2dvZHajNHUbR-80" value="" style="shape=mxgraph.cisco.computers_and_peripherals.ibm_mini_as400;sketch=0;html=1;pointerEvents=1;dashed=0;fillColor=#036897;strokeColor=#ffffff;strokeWidth=2;verticalLabelPosition=bottom;verticalAlign=top;align=center;outlineConnect=0;" vertex="1" parent="1">
          <mxGeometry x="1644.88" y="254.5" width="43" height="62" as="geometry" />
        </mxCell>
        <mxCell id="liVhshZr2dvZHajNHUbR-81" value="" style="shape=mxgraph.cisco.routers.10700;sketch=0;html=1;pointerEvents=1;dashed=0;fillColor=#036897;strokeColor=#ffffff;strokeWidth=2;verticalLabelPosition=bottom;verticalAlign=top;align=center;outlineConnect=0;" vertex="1" parent="1">
          <mxGeometry x="1492.63" y="204.5" width="47.5" height="30" as="geometry" />
        </mxCell>
        <mxCell id="liVhshZr2dvZHajNHUbR-82" value="" style="shape=mxgraph.cisco.routers.10700;sketch=0;html=1;pointerEvents=1;dashed=0;fillColor=#036897;strokeColor=#ffffff;strokeWidth=2;verticalLabelPosition=bottom;verticalAlign=top;align=center;outlineConnect=0;" vertex="1" parent="1">
          <mxGeometry x="1542.63" y="204.5" width="47.5" height="30" as="geometry" />
        </mxCell>
        <mxCell id="liVhshZr2dvZHajNHUbR-83" value="" style="shape=mxgraph.cisco.routers.10700;sketch=0;html=1;pointerEvents=1;dashed=0;fillColor=#036897;strokeColor=#ffffff;strokeWidth=2;verticalLabelPosition=bottom;verticalAlign=top;align=center;outlineConnect=0;" vertex="1" parent="1">
          <mxGeometry x="1592.63" y="204.5" width="47.5" height="30" as="geometry" />
        </mxCell>
        <mxCell id="liVhshZr2dvZHajNHUbR-84" value="" style="shape=mxgraph.cisco.routers.10700;sketch=0;html=1;pointerEvents=1;dashed=0;fillColor=#036897;strokeColor=#ffffff;strokeWidth=2;verticalLabelPosition=bottom;verticalAlign=top;align=center;outlineConnect=0;" vertex="1" parent="1">
          <mxGeometry x="1644.88" y="204.5" width="47.5" height="30" as="geometry" />
        </mxCell>
        <mxCell id="liVhshZr2dvZHajNHUbR-85" value="" style="shape=mxgraph.cisco.routers.10700;sketch=0;html=1;pointerEvents=1;dashed=0;fillColor=#036897;strokeColor=#ffffff;strokeWidth=2;verticalLabelPosition=bottom;verticalAlign=top;align=center;outlineConnect=0;" vertex="1" parent="1">
          <mxGeometry x="1440" y="693.5" width="47.5" height="30" as="geometry" />
        </mxCell>
        <mxCell id="liVhshZr2dvZHajNHUbR-86" value="" style="shape=mxgraph.cisco.computers_and_peripherals.ibm_mini_as400;sketch=0;html=1;pointerEvents=1;dashed=0;fillColor=#036897;strokeColor=#ffffff;strokeWidth=2;verticalLabelPosition=bottom;verticalAlign=top;align=center;outlineConnect=0;" vertex="1" parent="1">
          <mxGeometry x="1442.25" y="743.5" width="43" height="62" as="geometry" />
        </mxCell>
        <mxCell id="liVhshZr2dvZHajNHUbR-87" value="" style="shape=mxgraph.cisco.computers_and_peripherals.ibm_mini_as400;sketch=0;html=1;pointerEvents=1;dashed=0;fillColor=#036897;strokeColor=#ffffff;strokeWidth=2;verticalLabelPosition=bottom;verticalAlign=top;align=center;outlineConnect=0;" vertex="1" parent="1">
          <mxGeometry x="1492.25" y="743.5" width="43" height="62" as="geometry" />
        </mxCell>
        <mxCell id="liVhshZr2dvZHajNHUbR-88" value="" style="shape=mxgraph.cisco.computers_and_peripherals.ibm_mini_as400;sketch=0;html=1;pointerEvents=1;dashed=0;fillColor=#036897;strokeColor=#ffffff;strokeWidth=2;verticalLabelPosition=bottom;verticalAlign=top;align=center;outlineConnect=0;" vertex="1" parent="1">
          <mxGeometry x="1542.25" y="743.5" width="43" height="62" as="geometry" />
        </mxCell>
        <mxCell id="liVhshZr2dvZHajNHUbR-89" value="" style="shape=mxgraph.cisco.computers_and_peripherals.ibm_mini_as400;sketch=0;html=1;pointerEvents=1;dashed=0;fillColor=#036897;strokeColor=#ffffff;strokeWidth=2;verticalLabelPosition=bottom;verticalAlign=top;align=center;outlineConnect=0;" vertex="1" parent="1">
          <mxGeometry x="1592.25" y="743.5" width="43" height="62" as="geometry" />
        </mxCell>
        <mxCell id="liVhshZr2dvZHajNHUbR-90" value="" style="shape=mxgraph.cisco.computers_and_peripherals.ibm_mini_as400;sketch=0;html=1;pointerEvents=1;dashed=0;fillColor=#036897;strokeColor=#ffffff;strokeWidth=2;verticalLabelPosition=bottom;verticalAlign=top;align=center;outlineConnect=0;" vertex="1" parent="1">
          <mxGeometry x="1642.25" y="743.5" width="43" height="62" as="geometry" />
        </mxCell>
        <mxCell id="liVhshZr2dvZHajNHUbR-91" value="" style="shape=mxgraph.cisco.routers.10700;sketch=0;html=1;pointerEvents=1;dashed=0;fillColor=#036897;strokeColor=#ffffff;strokeWidth=2;verticalLabelPosition=bottom;verticalAlign=top;align=center;outlineConnect=0;" vertex="1" parent="1">
          <mxGeometry x="1490" y="693.5" width="47.5" height="30" as="geometry" />
        </mxCell>
        <mxCell id="liVhshZr2dvZHajNHUbR-92" value="" style="shape=mxgraph.cisco.routers.10700;sketch=0;html=1;pointerEvents=1;dashed=0;fillColor=#036897;strokeColor=#ffffff;strokeWidth=2;verticalLabelPosition=bottom;verticalAlign=top;align=center;outlineConnect=0;" vertex="1" parent="1">
          <mxGeometry x="1540" y="693.5" width="47.5" height="30" as="geometry" />
        </mxCell>
        <mxCell id="liVhshZr2dvZHajNHUbR-93" value="" style="shape=mxgraph.cisco.routers.10700;sketch=0;html=1;pointerEvents=1;dashed=0;fillColor=#036897;strokeColor=#ffffff;strokeWidth=2;verticalLabelPosition=bottom;verticalAlign=top;align=center;outlineConnect=0;" vertex="1" parent="1">
          <mxGeometry x="1590" y="693.5" width="47.5" height="30" as="geometry" />
        </mxCell>
        <mxCell id="liVhshZr2dvZHajNHUbR-94" value="" style="shape=mxgraph.cisco.routers.10700;sketch=0;html=1;pointerEvents=1;dashed=0;fillColor=#036897;strokeColor=#ffffff;strokeWidth=2;verticalLabelPosition=bottom;verticalAlign=top;align=center;outlineConnect=0;" vertex="1" parent="1">
          <mxGeometry x="1642.25" y="693.5" width="47.5" height="30" as="geometry" />
        </mxCell>
        <mxCell id="liVhshZr2dvZHajNHUbR-95" value="" style="shape=mxgraph.cisco.routers.10700;sketch=0;html=1;pointerEvents=1;dashed=0;fillColor=#036897;strokeColor=#ffffff;strokeWidth=2;verticalLabelPosition=bottom;verticalAlign=top;align=center;outlineConnect=0;" vertex="1" parent="1">
          <mxGeometry x="1080" y="460" width="60" height="40" as="geometry" />
        </mxCell>
        <mxCell id="liVhshZr2dvZHajNHUbR-97" value="" style="shape=parallelogram;perimeter=parallelogramPerimeter;whiteSpace=wrap;html=1;fixedSize=1;size=219.99999999999955;" vertex="1" parent="1">
          <mxGeometry x="-370" y="-860" width="2370" height="860" as="geometry" />
        </mxCell>
        <mxCell id="liVhshZr2dvZHajNHUbR-98" value="&lt;font style=&quot;font-size: 40px;&quot;&gt;Underlay 平面&lt;/font&gt;" style="text;html=1;align=center;verticalAlign=middle;whiteSpace=wrap;rounded=0;" vertex="1" parent="1">
          <mxGeometry x="-360" y="890" width="290" height="70" as="geometry" />
        </mxCell>
        <mxCell id="liVhshZr2dvZHajNHUbR-99" value="&lt;font style=&quot;font-size: 40px;&quot;&gt;Overlay 平面&lt;/font&gt;" style="text;html=1;align=center;verticalAlign=middle;whiteSpace=wrap;rounded=0;" vertex="1" parent="1">
          <mxGeometry x="-380" width="290" height="70" as="geometry" />
        </mxCell>
        <mxCell id="liVhshZr2dvZHajNHUbR-100" value="" style="shape=mxgraph.cisco.computers_and_peripherals.ibm_mini_as400;sketch=0;html=1;pointerEvents=1;dashed=0;fillColor=#036897;strokeColor=#ffffff;strokeWidth=2;verticalLabelPosition=bottom;verticalAlign=top;align=center;outlineConnect=0;" vertex="1" parent="1">
          <mxGeometry x="-280" y="1130" width="113" height="180" as="geometry" />
        </mxCell>
        <mxCell id="liVhshZr2dvZHajNHUbR-101" value="&lt;font style=&quot;font-size: 30px;&quot;&gt;HOST&lt;/font&gt;" style="rounded=1;whiteSpace=wrap;html=1;arcSize=9;labelPosition=center;verticalLabelPosition=bottom;align=center;verticalAlign=top;" vertex="1" parent="1">
          <mxGeometry x="57.879999999999995" y="1020" width="885" height="431" as="geometry" />
        </mxCell>
        <mxCell id="liVhshZr2dvZHajNHUbR-102" value="" style="shape=flexArrow;endArrow=classic;html=1;rounded=0;endWidth=40;endSize=14.042857142857144;width=30.000000000000004;fillColor=#fff2cc;strokeColor=#d6b656;" edge="1" parent="1">
          <mxGeometry width="50" height="50" relative="1" as="geometry">
            <mxPoint x="-90" y="1234.79" as="sourcePoint" />
            <mxPoint y="1234.79" as="targetPoint" />
          </mxGeometry>
        </mxCell>
        <mxCell id="liVhshZr2dvZHajNHUbR-103" value="&lt;font style=&quot;font-size: 30px;&quot;&gt;VM1&lt;/font&gt;" style="rounded=1;whiteSpace=wrap;html=1;arcSize=9;labelPosition=center;verticalLabelPosition=bottom;align=center;verticalAlign=top;" vertex="1" parent="1">
          <mxGeometry x="110" y="1070" width="230" height="130" as="geometry" />
        </mxCell>
        <mxCell id="liVhshZr2dvZHajNHUbR-104" value="&lt;font style=&quot;font-size: 30px;&quot;&gt;VM2&lt;/font&gt;" style="rounded=1;whiteSpace=wrap;html=1;arcSize=9;labelPosition=center;verticalLabelPosition=bottom;align=center;verticalAlign=top;" vertex="1" parent="1">
          <mxGeometry x="390" y="1070" width="230" height="130" as="geometry" />
        </mxCell>
        <mxCell id="liVhshZr2dvZHajNHUbR-105" value="&lt;font style=&quot;font-size: 30px;&quot;&gt;VM...&lt;/font&gt;" style="rounded=1;whiteSpace=wrap;html=1;arcSize=9;labelPosition=center;verticalLabelPosition=bottom;align=center;verticalAlign=top;" vertex="1" parent="1">
          <mxGeometry x="680" y="1070" width="230" height="130" as="geometry" />
        </mxCell>
        <mxCell id="liVhshZr2dvZHajNHUbR-107" value="&lt;font style=&quot;font-size: 30px;&quot;&gt;AVS(OVS)&lt;/font&gt;" style="shape=mxgraph.cisco.routers.10700;sketch=0;html=1;pointerEvents=1;dashed=0;fillColor=#036897;strokeColor=#ffffff;strokeWidth=2;verticalLabelPosition=bottom;verticalAlign=top;align=center;outlineConnect=0;" vertex="1" parent="1">
          <mxGeometry x="475" y="1330" width="60" height="40" as="geometry" />
        </mxCell>
        <mxCell id="liVhshZr2dvZHajNHUbR-108" value="&lt;font style=&quot;font-size: 30px;&quot;&gt;AVS(OVS)&lt;/font&gt;" style="shape=mxgraph.cisco.routers.10700;sketch=0;html=1;pointerEvents=1;dashed=0;fillColor=#036897;strokeColor=#ffffff;strokeWidth=2;verticalLabelPosition=bottom;verticalAlign=top;align=center;outlineConnect=0;" vertex="1" parent="1">
          <mxGeometry x="1190" y="1160" width="60" height="40" as="geometry" />
        </mxCell>
        <mxCell id="liVhshZr2dvZHajNHUbR-109" value="" style="shape=flexArrow;endArrow=classic;html=1;rounded=0;endWidth=40;endSize=14.042857142857144;width=30.000000000000004;fillColor=#fff2cc;strokeColor=#d6b656;" edge="1" parent="1">
          <mxGeometry width="50" height="50" relative="1" as="geometry">
            <mxPoint x="1330" y="1198.57" as="sourcePoint" />
            <mxPoint x="1420" y="1198.57" as="targetPoint" />
          </mxGeometry>
        </mxCell>
        <mxCell id="liVhshZr2dvZHajNHUbR-110" value="&lt;font style=&quot;font-size: 30px;&quot;&gt;AVS&lt;/font&gt;" style="rounded=1;whiteSpace=wrap;html=1;arcSize=9;labelPosition=center;verticalLabelPosition=bottom;align=center;verticalAlign=top;" vertex="1" parent="1">
          <mxGeometry x="1460" y="1150" width="885" height="320" as="geometry" />
        </mxCell>
        <mxCell id="liVhshZr2dvZHajNHUbR-113" value="&lt;font style=&quot;font-size: 30px;&quot;&gt;VM1&lt;/font&gt;" style="rounded=1;whiteSpace=wrap;html=1;arcSize=9;labelPosition=center;verticalLabelPosition=bottom;align=center;verticalAlign=top;" vertex="1" parent="1">
          <mxGeometry x="1460" y="990" width="230" height="90" as="geometry" />
        </mxCell>
        <mxCell id="liVhshZr2dvZHajNHUbR-114" value="&lt;font style=&quot;font-size: 30px;&quot;&gt;Docker&lt;/font&gt;" style="rounded=1;whiteSpace=wrap;html=1;arcSize=9;labelPosition=center;verticalLabelPosition=bottom;align=center;verticalAlign=top;" vertex="1" parent="1">
          <mxGeometry x="1787.5" y="990" width="230" height="90" as="geometry" />
        </mxCell>
        <mxCell id="liVhshZr2dvZHajNHUbR-115" value="&lt;font style=&quot;font-size: 30px;&quot;&gt;VM2&lt;/font&gt;" style="rounded=1;whiteSpace=wrap;html=1;arcSize=9;labelPosition=center;verticalLabelPosition=bottom;align=center;verticalAlign=top;" vertex="1" parent="1">
          <mxGeometry x="2080" y="990" width="230" height="90" as="geometry" />
        </mxCell>
        <mxCell id="liVhshZr2dvZHajNHUbR-116" value="&lt;span style=&quot;font-size: 30px;&quot;&gt;虚拟接口&lt;/span&gt;" style="rounded=1;whiteSpace=wrap;html=1;arcSize=9;labelPosition=center;verticalLabelPosition=middle;align=center;verticalAlign=middle;" vertex="1" parent="1">
          <mxGeometry x="1501.38" y="1180" width="808.62" height="70" as="geometry" />
        </mxCell>
        <mxCell id="liVhshZr2dvZHajNHUbR-117" value="&lt;span style=&quot;font-size: 30px;&quot;&gt;Fastpath&lt;/span&gt;" style="rounded=1;whiteSpace=wrap;html=1;arcSize=9;labelPosition=center;verticalLabelPosition=middle;align=center;verticalAlign=middle;" vertex="1" parent="1">
          <mxGeometry x="1501.38" y="1280" width="308.62" height="70" as="geometry" />
        </mxCell>
        <mxCell id="liVhshZr2dvZHajNHUbR-118" value="&lt;span style=&quot;font-size: 30px;&quot;&gt;Slowpath&lt;/span&gt;" style="rounded=1;whiteSpace=wrap;html=1;arcSize=9;labelPosition=center;verticalLabelPosition=middle;align=center;verticalAlign=middle;" vertex="1" parent="1">
          <mxGeometry x="1830" y="1280" width="308.62" height="70" as="geometry" />
        </mxCell>
        <mxCell id="liVhshZr2dvZHajNHUbR-119" value="&lt;span style=&quot;font-size: 30px;&quot;&gt;Agent&lt;/span&gt;" style="rounded=1;whiteSpace=wrap;html=1;arcSize=9;labelPosition=center;verticalLabelPosition=middle;align=center;verticalAlign=middle;" vertex="1" parent="1">
          <mxGeometry x="2150" y="1280" width="160" height="70" as="geometry" />
        </mxCell>
        <mxCell id="liVhshZr2dvZHajNHUbR-120" value="&lt;span style=&quot;font-size: 30px;&quot;&gt;网络接口&lt;/span&gt;" style="rounded=1;whiteSpace=wrap;html=1;arcSize=9;labelPosition=center;verticalLabelPosition=middle;align=center;verticalAlign=middle;" vertex="1" parent="1">
          <mxGeometry x="1498.19" y="1380" width="808.62" height="70" as="geometry" />
        </mxCell>
        <mxCell id="liVhshZr2dvZHajNHUbR-121" value="&lt;span style=&quot;font-size: 30px;&quot;&gt;管控&lt;/span&gt;" style="rounded=1;whiteSpace=wrap;html=1;arcSize=9;labelPosition=center;verticalLabelPosition=middle;align=center;verticalAlign=middle;fillColor=#eeeeee;strokeColor=#36393d;" vertex="1" parent="1">
          <mxGeometry x="2400" y="1240" width="330" height="140" as="geometry" />
        </mxCell>
        <mxCell id="liVhshZr2dvZHajNHUbR-125" style="rounded=0;orthogonalLoop=1;jettySize=auto;html=1;" edge="1" parent="1" source="liVhshZr2dvZHajNHUbR-122" target="liVhshZr2dvZHajNHUbR-117">
          <mxGeometry relative="1" as="geometry" />
        </mxCell>
        <mxCell id="liVhshZr2dvZHajNHUbR-122" value="&lt;span style=&quot;font-size: 30px;&quot;&gt;非首包&lt;/span&gt;" style="rounded=1;whiteSpace=wrap;html=1;arcSize=9;labelPosition=center;verticalLabelPosition=bottom;align=center;verticalAlign=top;" vertex="1" parent="1">
          <mxGeometry x="1498.19" y="1530" width="230" height="60" as="geometry" />
        </mxCell>
        <mxCell id="liVhshZr2dvZHajNHUbR-126" style="rounded=0;orthogonalLoop=1;jettySize=auto;html=1;" edge="1" parent="1" source="liVhshZr2dvZHajNHUbR-123" target="liVhshZr2dvZHajNHUbR-118">
          <mxGeometry relative="1" as="geometry" />
        </mxCell>
        <mxCell id="liVhshZr2dvZHajNHUbR-123" value="&lt;span style=&quot;font-size: 30px;&quot;&gt;首包&lt;/span&gt;" style="rounded=1;whiteSpace=wrap;html=1;arcSize=9;labelPosition=center;verticalLabelPosition=bottom;align=center;verticalAlign=top;" vertex="1" parent="1">
          <mxGeometry x="1830" y="1530" width="230" height="60" as="geometry" />
        </mxCell>
        <mxCell id="liVhshZr2dvZHajNHUbR-127" value="&lt;span style=&quot;font-size: 30px;&quot;&gt;物理机&lt;/span&gt;" style="rounded=1;whiteSpace=wrap;html=1;arcSize=7;labelPosition=center;verticalLabelPosition=bottom;align=center;verticalAlign=top;" vertex="1" parent="1">
          <mxGeometry x="1463.19" y="1780" width="1016.81" height="800" as="geometry" />
        </mxCell>
        <mxCell id="liVhshZr2dvZHajNHUbR-128" value="&lt;span style=&quot;font-size: 30px;&quot;&gt;eth0&lt;/span&gt;" style="rounded=1;whiteSpace=wrap;html=1;arcSize=9;labelPosition=center;verticalLabelPosition=middle;align=center;verticalAlign=middle;" vertex="1" parent="1">
          <mxGeometry x="1590.13" y="1754" width="230" height="60" as="geometry" />
        </mxCell>
        <mxCell id="liVhshZr2dvZHajNHUbR-129" value="&lt;span style=&quot;font-size: 30px;&quot;&gt;eth1&lt;/span&gt;" style="rounded=1;whiteSpace=wrap;html=1;arcSize=9;labelPosition=center;verticalLabelPosition=middle;align=center;verticalAlign=middle;" vertex="1" parent="1">
          <mxGeometry x="1930" y="1754" width="230" height="60" as="geometry" />
        </mxCell>
        <mxCell id="liVhshZr2dvZHajNHUbR-130" value="&lt;div style=&quot;&quot;&gt;&lt;span style=&quot;font-size: 30px; background-color: initial;&quot;&gt;&lt;b&gt;AVS&lt;/b&gt;&lt;/span&gt;&lt;/div&gt;" style="rounded=1;whiteSpace=wrap;html=1;arcSize=9;labelPosition=center;verticalLabelPosition=middle;align=center;verticalAlign=top;" vertex="1" parent="1">
          <mxGeometry x="1516.59" y="1860" width="880" height="440" as="geometry" />
        </mxCell>
        <mxCell id="liVhshZr2dvZHajNHUbR-132" value="&lt;span style=&quot;font-size: 30px;&quot;&gt;查表&lt;/span&gt;" style="rounded=1;whiteSpace=wrap;html=1;arcSize=9;labelPosition=center;verticalLabelPosition=middle;align=center;verticalAlign=middle;" vertex="1" parent="1">
          <mxGeometry x="1570" y="2045" width="250" height="70" as="geometry" />
        </mxCell>
        <mxCell id="liVhshZr2dvZHajNHUbR-133" value="&lt;span style=&quot;font-size: 30px;&quot;&gt;表1 路由表&lt;/span&gt;" style="rounded=1;whiteSpace=wrap;html=1;arcSize=9;labelPosition=center;verticalLabelPosition=middle;align=left;verticalAlign=middle;" vertex="1" parent="1">
          <mxGeometry x="1888.62" y="1950" width="250" height="70" as="geometry" />
        </mxCell>
        <mxCell id="liVhshZr2dvZHajNHUbR-134" value="&lt;span style=&quot;font-size: 30px;&quot;&gt;表2 VTEP 映射表&lt;/span&gt;" style="rounded=1;whiteSpace=wrap;html=1;arcSize=9;labelPosition=center;verticalLabelPosition=middle;align=left;verticalAlign=middle;" vertex="1" parent="1">
          <mxGeometry x="1888.62" y="2150" width="250" height="70" as="geometry" />
        </mxCell>
        <mxCell id="liVhshZr2dvZHajNHUbR-135" value="&lt;span style=&quot;font-size: 30px;&quot;&gt;虚拟接口&lt;/span&gt;" style="rounded=1;whiteSpace=wrap;html=1;arcSize=9;labelPosition=center;verticalLabelPosition=middle;align=center;verticalAlign=middle;" vertex="1" parent="1">
          <mxGeometry x="1600" y="2268" width="150" height="70" as="geometry" />
        </mxCell>
        <mxCell id="liVhshZr2dvZHajNHUbR-136" value="&lt;span style=&quot;font-size: 30px;&quot;&gt;虚拟接口&lt;/span&gt;" style="rounded=1;whiteSpace=wrap;html=1;arcSize=9;labelPosition=center;verticalLabelPosition=middle;align=center;verticalAlign=middle;" vertex="1" parent="1">
          <mxGeometry x="1800" y="2268" width="150" height="70" as="geometry" />
        </mxCell>
        <mxCell id="liVhshZr2dvZHajNHUbR-137" value="&lt;span style=&quot;font-size: 30px;&quot;&gt;虚拟接口&lt;/span&gt;" style="rounded=1;whiteSpace=wrap;html=1;arcSize=9;labelPosition=center;verticalLabelPosition=middle;align=center;verticalAlign=middle;" vertex="1" parent="1">
          <mxGeometry x="2000" y="2268" width="150" height="70" as="geometry" />
        </mxCell>
        <mxCell id="liVhshZr2dvZHajNHUbR-138" value="&lt;span style=&quot;font-size: 30px;&quot;&gt;ECS&lt;/span&gt;" style="rounded=1;whiteSpace=wrap;html=1;arcSize=9;labelPosition=center;verticalLabelPosition=middle;align=center;verticalAlign=middle;" vertex="1" parent="1">
          <mxGeometry x="1535.25" y="2410" width="224.75" height="140" as="geometry" />
        </mxCell>
        <mxCell id="liVhshZr2dvZHajNHUbR-139" value="&lt;span style=&quot;font-size: 30px;&quot;&gt;eth0&lt;/span&gt;" style="rounded=1;whiteSpace=wrap;html=1;arcSize=9;labelPosition=center;verticalLabelPosition=middle;align=center;verticalAlign=middle;" vertex="1" parent="1">
          <mxGeometry x="1572.62" y="2380" width="150" height="70" as="geometry" />
        </mxCell>
        <mxCell id="liVhshZr2dvZHajNHUbR-140" value="&lt;span style=&quot;font-size: 30px;&quot;&gt;ECS&lt;/span&gt;" style="rounded=1;whiteSpace=wrap;html=1;arcSize=9;labelPosition=center;verticalLabelPosition=middle;align=center;verticalAlign=middle;" vertex="1" parent="1">
          <mxGeometry x="1775.25" y="2410" width="224.75" height="140" as="geometry" />
        </mxCell>
        <mxCell id="liVhshZr2dvZHajNHUbR-141" value="&lt;span style=&quot;font-size: 30px;&quot;&gt;eth0&lt;/span&gt;" style="rounded=1;whiteSpace=wrap;html=1;arcSize=9;labelPosition=center;verticalLabelPosition=middle;align=center;verticalAlign=middle;" vertex="1" parent="1">
          <mxGeometry x="1812.62" y="2380" width="150" height="70" as="geometry" />
        </mxCell>
        <mxCell id="liVhshZr2dvZHajNHUbR-142" value="&lt;span style=&quot;font-size: 30px;&quot;&gt;ECS&lt;/span&gt;" style="rounded=1;whiteSpace=wrap;html=1;arcSize=9;labelPosition=center;verticalLabelPosition=middle;align=center;verticalAlign=middle;" vertex="1" parent="1">
          <mxGeometry x="2017.5" y="2410" width="224.75" height="140" as="geometry" />
        </mxCell>
        <mxCell id="liVhshZr2dvZHajNHUbR-143" value="&lt;span style=&quot;font-size: 30px;&quot;&gt;eth0&lt;/span&gt;" style="rounded=1;whiteSpace=wrap;html=1;arcSize=9;labelPosition=center;verticalLabelPosition=middle;align=center;verticalAlign=middle;" vertex="1" parent="1">
          <mxGeometry x="2054.87" y="2380" width="150" height="70" as="geometry" />
        </mxCell>
        <mxCell id="liVhshZr2dvZHajNHUbR-144" value="" style="endArrow=classic;startArrow=classic;html=1;rounded=0;entryX=0.5;entryY=1;entryDx=0;entryDy=0;" edge="1" parent="1" source="liVhshZr2dvZHajNHUbR-139" target="liVhshZr2dvZHajNHUbR-135">
          <mxGeometry width="50" height="50" relative="1" as="geometry">
            <mxPoint x="1200" y="2320" as="sourcePoint" />
            <mxPoint x="1250" y="2270" as="targetPoint" />
          </mxGeometry>
        </mxCell>
        <mxCell id="liVhshZr2dvZHajNHUbR-145" value="" style="endArrow=classic;startArrow=classic;html=1;rounded=0;" edge="1" parent="1" source="liVhshZr2dvZHajNHUbR-141" target="liVhshZr2dvZHajNHUbR-136">
          <mxGeometry width="50" height="50" relative="1" as="geometry">
            <mxPoint x="1670" y="2390" as="sourcePoint" />
            <mxPoint x="1685" y="2348" as="targetPoint" />
          </mxGeometry>
        </mxCell>
        <mxCell id="liVhshZr2dvZHajNHUbR-146" value="" style="endArrow=classic;startArrow=classic;html=1;rounded=0;" edge="1" parent="1" source="liVhshZr2dvZHajNHUbR-143" target="liVhshZr2dvZHajNHUbR-137">
          <mxGeometry width="50" height="50" relative="1" as="geometry">
            <mxPoint x="1894" y="2390" as="sourcePoint" />
            <mxPoint x="1889" y="2348" as="targetPoint" />
          </mxGeometry>
        </mxCell>
        <mxCell id="liVhshZr2dvZHajNHUbR-147" value="" style="endArrow=classic;html=1;rounded=0;" edge="1" parent="1" source="liVhshZr2dvZHajNHUbR-132">
          <mxGeometry width="50" height="50" relative="1" as="geometry">
            <mxPoint x="1280" y="2140" as="sourcePoint" />
            <mxPoint x="1890" y="2000" as="targetPoint" />
          </mxGeometry>
        </mxCell>
        <mxCell id="liVhshZr2dvZHajNHUbR-148" value="" style="endArrow=classic;html=1;rounded=0;" edge="1" parent="1" source="liVhshZr2dvZHajNHUbR-132" target="liVhshZr2dvZHajNHUbR-134">
          <mxGeometry width="50" height="50" relative="1" as="geometry">
            <mxPoint x="1780" y="2055" as="sourcePoint" />
            <mxPoint x="1920" y="1990" as="targetPoint" />
          </mxGeometry>
        </mxCell>
        <mxCell id="liVhshZr2dvZHajNHUbR-149" value="&lt;span style=&quot;color: rgb(38, 38, 38); line-height: 1.74; letter-spacing: 0.05em; outline-style: none; overflow-wrap: break-word;&quot;&gt;&lt;font style=&quot;font-size: 30px;&quot;&gt;同VPC，同VSW&lt;/font&gt;&lt;/span&gt;&lt;div&gt;&lt;span style=&quot;color: rgb(38, 38, 38); line-height: 1.74; letter-spacing: 0.05em; outline-style: none; overflow-wrap: break-word;&quot;&gt;&lt;font style=&quot;font-size: 30px;&quot;&gt;逻辑通信路径是：ECS1 → 源AVS → 源物理机 → (VPC Gateway) → 目的物理机 → 目的AVS → ECS2&lt;/font&gt;&lt;/span&gt;&lt;/div&gt;&lt;div&gt;&lt;span style=&quot;color: rgb(38, 38, 38); line-height: 1.74; letter-spacing: 0.05em; outline-style: none; overflow-wrap: break-word;&quot;&gt;&lt;font style=&quot;font-size: 30px;&quot;&gt;&lt;br&gt;&lt;/font&gt;&lt;/span&gt;&lt;/div&gt;&lt;div&gt;&lt;span style=&quot;color: rgb(38, 38, 38); line-height: 1.74; letter-spacing: 0.05em; outline-style: none; overflow-wrap: break-word;&quot;&gt;&lt;font style=&quot;font-size: 30px;&quot;&gt;&lt;span style=&quot;letter-spacing: 0.6px;&quot;&gt;同VPC，不同VSW&lt;/span&gt;&lt;/font&gt;&lt;/span&gt;&lt;/div&gt;&lt;div&gt;&lt;span style=&quot;color: rgb(38, 38, 38); line-height: 1.74; letter-spacing: 0.05em; outline-style: none; overflow-wrap: break-word;&quot;&gt;&lt;font style=&quot;font-size: 30px;&quot;&gt;&lt;span style=&quot;letter-spacing: 0.6px;&quot;&gt;逻辑通信路径是：ECS1 → 源AVS → 源物理机 → (VPC Gateway)&amp;nbsp;&lt;/span&gt;&lt;/font&gt;&lt;/span&gt;&lt;span style=&quot;color: rgb(38, 38, 38); font-size: 30px; letter-spacing: 0.6px; background-color: initial;&quot;&gt;→ (源DPA)&lt;/span&gt;&lt;span style=&quot;color: rgb(38, 38, 38); font-size: 30px; letter-spacing: 0.6px; background-color: initial;&quot;&gt;→（目的DPA）&lt;/span&gt;&lt;span style=&quot;background-color: initial; color: rgb(38, 38, 38); font-size: 30px; letter-spacing: 0.6px;&quot;&gt;→ 目的物理机 → 目的AVS → ECS2&lt;/span&gt;&lt;/div&gt;&lt;div&gt;&lt;span style=&quot;color: rgb(38, 38, 38); line-height: 1.74; letter-spacing: 0.05em; outline-style: none; overflow-wrap: break-word;&quot;&gt;&lt;font style=&quot;font-size: 30px;&quot;&gt;&lt;span style=&quot;letter-spacing: 0.6px;&quot;&gt;&lt;br&gt;&lt;/span&gt;&lt;/font&gt;&lt;/span&gt;&lt;/div&gt;&lt;div&gt;&lt;span style=&quot;color: rgb(38, 38, 38); line-height: 1.74; letter-spacing: 0.05em; outline-style: none; overflow-wrap: break-word;&quot;&gt;&lt;font style=&quot;font-size: 30px;&quot;&gt;&lt;span style=&quot;letter-spacing: 0.6px;&quot;&gt;不同VPC，同地域&lt;/span&gt;&lt;/font&gt;&lt;/span&gt;&lt;/div&gt;&lt;div style=&quot;font-size: 30px;&quot;&gt;&lt;span style=&quot;color: rgb(38, 38, 38); letter-spacing: 0.05em; background-color: initial;&quot;&gt;&lt;font style=&quot;font-size: 30px;&quot;&gt;通过对等连接/VPC互联，CEN1.0、CEN2.0/CEN TR这三种方式进行通信&lt;/font&gt;&lt;/span&gt;&lt;/div&gt;&lt;div style=&quot;font-size: 30px;&quot;&gt;&lt;font style=&quot;font-size: 30px;&quot;&gt;&lt;span style=&quot;color: rgb(38, 38, 38); line-height: 1.74; letter-spacing: 0.05em; outline-style: none; overflow-wrap: break-word;&quot;&gt;源vSwitch上查询路由表项的时候，会先找到对端VPC的tunnel-id，交给CEN网关/VPC Gateway转发给目的地&lt;/span&gt;&lt;/font&gt;&lt;/div&gt;&lt;div style=&quot;font-size: 30px;&quot;&gt;逻辑通信路径是：ECS1 → 源AVS&amp;nbsp;&lt;span data-mce-style=&quot;font-size: 15px&quot; style=&quot;color: rgb(100, 99, 99); font-size: 15px;&quot; class=&quot;lake-fontsize-1515&quot;&gt;&lt;span style=&quot;color: rgb(38, 38, 38); font-size: 30px; letter-spacing: 0.6px;&quot;&gt;→&lt;/span&gt;&amp;nbsp;&lt;/span&gt;源物理机&lt;span data-mce-style=&quot;font-size: 15px&quot; style=&quot;color: rgb(100, 99, 99); font-size: 15px;&quot; class=&quot;lake-fontsize-1515&quot;&gt;&amp;nbsp;&amp;nbsp;&lt;/span&gt;&lt;span style=&quot;color: rgb(38, 38, 38); letter-spacing: 0.6px; background-color: initial;&quot;&gt;→&amp;nbsp;&lt;/span&gt;&lt;span style=&quot;background-color: initial; color: rgb(100, 99, 99); font-size: 15px;&quot; data-mce-style=&quot;font-size: 15px&quot; class=&quot;lake-fontsize-1515&quot;&gt;&amp;nbsp;&lt;/span&gt;&lt;span style=&quot;background-color: initial;&quot;&gt;(VPC Gateway)&lt;/span&gt;&lt;span style=&quot;background-color: initial; color: rgb(100, 99, 99); font-size: 15px;&quot; data-mce-style=&quot;font-size: 15px&quot; class=&quot;lake-fontsize-1515&quot;&gt;&amp;nbsp;&amp;nbsp;&lt;/span&gt;&lt;span style=&quot;color: rgb(38, 38, 38); letter-spacing: 0.6px; background-color: initial;&quot;&gt;→&amp;nbsp;&lt;/span&gt;&lt;span style=&quot;background-color: initial;&quot;&gt;目的物理机&lt;/span&gt;&lt;span style=&quot;background-color: initial; color: rgb(100, 99, 99); font-size: 15px;&quot; data-mce-style=&quot;font-size: 15px&quot; class=&quot;lake-fontsize-1515&quot;&gt;&amp;nbsp;&amp;nbsp;&lt;/span&gt;&lt;span style=&quot;color: rgb(38, 38, 38); letter-spacing: 0.6px; background-color: initial;&quot;&gt;→&amp;nbsp;&lt;/span&gt;&lt;span style=&quot;background-color: initial;&quot;&gt;目的AVS&lt;/span&gt;&lt;span style=&quot;background-color: initial; color: rgb(100, 99, 99); font-size: 15px;&quot; data-mce-style=&quot;font-size: 15px&quot; class=&quot;lake-fontsize-1515&quot;&gt;&amp;nbsp;&amp;nbsp;&lt;/span&gt;&lt;span style=&quot;color: rgb(38, 38, 38); letter-spacing: 0.6px; background-color: initial;&quot;&gt;→&amp;nbsp;&lt;/span&gt;&lt;span style=&quot;background-color: initial; color: rgb(100, 99, 99); font-size: 15px;&quot; data-mce-style=&quot;font-size: 15px&quot; class=&quot;lake-fontsize-1515&quot;&gt;&amp;nbsp;&lt;/span&gt;&lt;span style=&quot;background-color: initial;&quot;&gt;ECS2。&lt;/span&gt;&lt;/div&gt;&lt;div style=&quot;font-size: 30px;&quot;&gt;&lt;span style=&quot;color: rgb(38, 38, 38); line-height: 1.74; letter-spacing: 0.05em; outline-style: none; overflow-wrap: break-word;&quot;&gt;&lt;font style=&quot;font-size: 30px;&quot;&gt;&lt;span style=&quot;letter-spacing: 0.6px;&quot;&gt;&lt;br&gt;&lt;/span&gt;&lt;/font&gt;&lt;/span&gt;&lt;/div&gt;" style="text;whiteSpace=wrap;html=1;" vertex="1" parent="1">
          <mxGeometry x="2390" y="150" width="2090" height="610" as="geometry" />
        </mxCell>
        <mxCell id="liVhshZr2dvZHajNHUbR-151" value="&lt;font style=&quot;font-size: 30px;&quot;&gt;Eth&lt;/font&gt;" style="rounded=1;whiteSpace=wrap;html=1;arcSize=9;labelPosition=center;verticalLabelPosition=bottom;align=center;verticalAlign=top;fillColor=#ffff88;strokeColor=#36393d;" vertex="1" parent="1">
          <mxGeometry x="-400" y="1990" width="260" height="145" as="geometry" />
        </mxCell>
        <mxCell id="liVhshZr2dvZHajNHUbR-153" value="&lt;font style=&quot;font-size: 30px;&quot;&gt;IP&lt;/font&gt;" style="rounded=1;whiteSpace=wrap;html=1;arcSize=9;labelPosition=center;verticalLabelPosition=bottom;align=center;verticalAlign=top;fillColor=#cdeb8b;strokeColor=#36393d;" vertex="1" parent="1">
          <mxGeometry x="-140" y="1990" width="260" height="145" as="geometry" />
        </mxCell>
        <mxCell id="liVhshZr2dvZHajNHUbR-154" value="&lt;font style=&quot;font-size: 30px;&quot;&gt;UDP&lt;/font&gt;" style="rounded=1;whiteSpace=wrap;html=1;arcSize=9;labelPosition=center;verticalLabelPosition=bottom;align=center;verticalAlign=top;fillColor=#cce5ff;strokeColor=#36393d;" vertex="1" parent="1">
          <mxGeometry x="120" y="1990" width="260" height="145" as="geometry" />
        </mxCell>
        <mxCell id="liVhshZr2dvZHajNHUbR-155" value="&lt;font style=&quot;font-size: 30px;&quot;&gt;Tunnel-id&lt;/font&gt;" style="rounded=1;whiteSpace=wrap;html=1;arcSize=9;labelPosition=center;verticalLabelPosition=bottom;align=center;verticalAlign=top;fillColor=#ffcccc;strokeColor=#36393d;" vertex="1" parent="1">
          <mxGeometry x="380" y="1990" width="260" height="145" as="geometry" />
        </mxCell>
        <mxCell id="liVhshZr2dvZHajNHUbR-156" value="&lt;font style=&quot;font-size: 30px;&quot;&gt;Payload&lt;/font&gt;" style="rounded=1;whiteSpace=wrap;html=1;arcSize=9;labelPosition=center;verticalLabelPosition=bottom;align=center;verticalAlign=top;fillColor=#eeeeee;strokeColor=#36393d;" vertex="1" parent="1">
          <mxGeometry x="640" y="1990" width="440" height="145" as="geometry" />
        </mxCell>
        <mxCell id="liVhshZr2dvZHajNHUbR-158" value="&lt;span style=&quot;font-size: 40px;&quot;&gt;报文格式&lt;/span&gt;" style="text;html=1;align=center;verticalAlign=middle;whiteSpace=wrap;rounded=0;" vertex="1" parent="1">
          <mxGeometry x="-400" y="1870" width="290" height="70" as="geometry" />
        </mxCell>
      </root>
    </mxGraphModel>
  </diagram>
</mxfile>
